Coordinates
version=1
nRows=16
nColumns=36
inDegrees=yes

Units are S.I. units (second, meters, Newtons, ...)
If the header above contains a line with 'inDegrees', this indicates whether rotational values are in degrees (yes) or radians (no).

endheader
time	pelvis_tilt	pelvis_list	pelvis_rotation	pelvis_tx	pelvis_ty	pelvis_tz	hip_flexion_r	hip_adduction_r	hip_rotation_r	knee_angle_r	knee_angle_r_beta	ankle_angle_r	subtalar_angle_r	mtp_angle_r	hip_flexion_l	hip_adduction_l	hip_rotation_l	knee_angle_l	knee_angle_l_beta	ankle_angle_l	subtalar_angle_l	mtp_angle_l	lumbar_extension	lumbar_bending	lumbar_rotation	arm_flex_r	arm_add_r	arm_rot_r	elbow_flex_r	pro_sup_r	arm_flex_l	arm_add_l	arm_rot_l	elbow_flex_l	pro_sup_l
      1.71000000	     -9.56641745	      1.02068076	      1.13125741	     -0.24858448	      0.74639648	     -0.57905713	     65.61426190	     -4.97749025	     -2.72831152	    100.71546557	      1.75781648	     32.83053578	    -13.57174057	     -7.47787587	     70.24412329	     -0.10390469	      2.83671001	     99.36408859	      1.73423050	     26.07636186	    -12.30871060	     -7.47787587	    -37.43495785	      3.31583207	     -3.28421125	     26.48711341	      0.86851340	      2.36745558	     94.71441972	    109.92742997	     11.19590843	    -19.83959627	    -10.44357450	    101.40869584	     98.96302987
      1.72000000	     -9.85589505	      0.85209634	      1.16267440	     -0.24556297	      0.75982997	     -0.57825052	     64.45235906	     -4.83959564	     -3.06548416	     98.39276100	      1.71727764	     31.13096420	    -14.27140559	     -7.47864167	     68.99626667	      0.01516491	      3.08668757	     97.14634610	      1.69552360	     24.82231852	    -13.29007518	     -7.47864167	    -36.80740046	      3.40077684	     -3.15286851	     23.67725269	      0.76392933	      2.76349533	     96.67946705	    109.97650954	      9.44413740	    -20.14816965	    -10.98960207	    100.88008651	     99.04530883
      1.73000000	    -10.11556938	      0.81219702	      1.20354416	     -0.24228031	      0.77413857	     -0.57734183	     63.16223557	     -4.78410871	     -3.24855447	     95.98206211	      1.67520301	     30.17581383	    -13.82544088	     -7.47879108	     67.56356336	      0.18271235	      3.27076198	     94.75475365	      1.65378243	     24.21199256	    -13.22148539	     -7.47879108	    -36.11416971	      3.41562333	     -3.22069685	     20.69220818	      0.62593671	      3.23979424	     98.83922848	    110.13017228	      7.39184727	    -20.60264515	    -11.71646884	    100.31440945	     98.99716506
      1.74000000	    -10.24535568	      0.77125224	      1.29031067	     -0.23880146	      0.78963711	     -0.57663377	     61.55353440	     -4.68680676	     -3.42976818	     93.23751966	      1.62730170	     28.38619769	    -14.54388792	     -7.47946638	     65.86163151	      0.36543456	      3.38305960	     92.03592265	      1.60632988	     22.60372036	    -14.54740010	     -7.47946638	    -35.49984612	      3.37410484	     -2.96075273	     17.26109118	     -0.00125446	      3.21258406	    101.76117518	    110.18472402	      5.54973401	    -20.71646409	    -12.20313862	    100.11824792	     99.15816458
      1.75000000	    -10.46892828	      0.81086741	      1.45650136	     -0.23509352	      0.80572431	     -0.57629094	     59.90886570	     -4.77611772	     -3.57839421	     90.36289818	      1.57713009	     27.26556221	    -14.07946094	     -7.47965226	     64.09028018	      0.66205703	      3.50491559	     89.10606810	      1.55519427	     21.84087075	    -14.54025000	     -7.47965226	    -34.59210177	      3.37557582	     -3.16121929	     13.84276482	     -0.65697618	      3.52179903	    104.52644387	    110.33352383	      3.05846058	    -20.97354598	    -13.04576967	    100.03882899	     99.15102754
      1.76000000	    -10.59743099	      0.88132846	      1.54003399	     -0.23109958	      0.82297308	     -0.57595309	     57.98713595	     -4.86573713	     -3.82561825	     87.10811473	      1.52032341	     25.48602607	    -14.59787929	     -7.48033868	     61.97648877	      0.88331716	      3.48238572	     85.73964802	      1.49643916	     20.20976577	    -15.93409136	     -7.48033868	    -33.69351885	      3.27051438	     -3.28496454	     10.31267756	     -1.41152108	      3.50981540	    107.34500330	    110.12346852	      0.25871736	    -21.10115061	    -13.93314338	    100.66334707	     99.15586560
      1.77000000	    -10.78560889	      1.00529092	      1.54060219	     -0.22670959	      0.84087034	     -0.57554824	     56.02406530	     -5.10915140	     -4.17948969	     83.69035744	      1.46067229	     24.18670324	    -13.93370276	     -7.48056442	     59.72472470	      0.97173390	      3.35919387	     82.11902492	      1.43324736	     19.39745531	    -15.87059527	     -7.48056442	    -32.56841651	      3.08460650	     -3.37930005	      6.63155100	     -2.26856512	      3.37566511	    110.34294614	    110.10362848	     -2.96957482	    -21.15964711	    -14.88677764	    101.73732810	     99.18002840
      1.78000000	    -10.85904025	      1.16911528	      1.37180459	     -0.22200923	      0.85984964	     -0.57496362	     53.82497164	     -5.30551951	     -4.59256569	     79.96783740	      1.39570206	     22.60755445	    -13.42161443	     -7.48078095	     57.16008517	      0.86088687	      3.02891374	     78.12698696	      1.36357316	     18.21424142	    -15.97995633	     -7.48078095	    -31.44633420	      2.78113444	     -3.40279797	      2.95284971	     -3.08030161	      2.93592190	    113.27791131	    110.06468895	     -6.51604498	    -21.05313535	    -15.94988035	    103.46553354	     99.28984504
      1.79000000	    -10.91539649	      1.43456439	      1.18917085	     -0.21717037	      0.87989165	     -0.57441994	     51.49142670	     -5.51810599	     -5.02744523	     75.87169097	      1.32421082	     19.95637060	    -14.18114692	     -7.48156251	     54.46161944	      0.80035718	      2.53120847	     73.67954455	      1.28595064	     15.48388680	    -17.63179669	     -7.48156251	    -30.19503179	      2.35053097	     -3.95788307	     -0.29164465	     -3.99077507	      2.91429165	    115.61734023	    109.79397523	    -10.79248602	    -20.60326612	    -17.81231530	    105.79911854	     99.56445135
      1.80000000	    -11.02605006	      1.78150922	      0.97344503	     -0.21204262	      0.90076227	     -0.57394797	     49.13709759	     -5.80357256	     -5.50668482	     71.56096541	      1.24897446	     17.39465358	    -14.23396647	     -7.48226673	     51.76425250	      0.71082039	      1.91433943	     69.04088666	      1.20499079	     13.03861728	    -17.87971228	     -7.48226673	    -28.76002097	      1.82847573	     -4.15837596	     -3.88302721	     -4.97484820	      2.43245644	    118.21415768	    109.57062973	    -14.80041580	    -19.97718195	    -19.16597689	    108.09274499	     99.91630129
      1.81000000	    -11.12913246	      2.25252613	      0.70527995	     -0.20669756	      0.92275642	     -0.57325169	     46.72778424	     -6.15752635	     -6.01119016	     66.96531936	      1.16876531	     14.22797622	    -14.36080683	     -7.48292536	     49.02922861	      0.60905080	      1.01651129	     64.15491837	      1.11971456	      9.80462871	    -17.94023538	     -7.48292536	    -27.23111931	      1.12969404	     -4.17957030	     -7.58692054	     -5.94288992	      1.67771580	    120.66902762	    109.30517418	    -18.60083174	    -19.23570149	    -20.33225515	    110.24657852	    100.37035640
      1.82000000	    -11.09135624	      2.86481338	      0.38825365	     -0.20115241	      0.94616670	     -0.57237868	     44.10618275	     -6.62344000	     -6.49657015	     62.07794934	      1.08346461	     10.66384011	    -14.13715272	     -7.48343359	     46.07840807	      0.54942396	     -0.16074234	     58.93433464	      1.02859818	      5.93065986	    -17.55544472	     -7.48343359	    -25.78062629	      0.25900360	     -4.02497259	    -11.24333218	     -6.77895512	      0.53527958	    122.88078760	    109.07146459	    -22.04872753	    -18.39016424	    -21.31424833	    112.09326046	    100.85567734
      1.83000000	    -10.98897656	      3.58046834	      0.08981589	     -0.19552649	      0.97080625	     -0.57141466	     41.31242369	     -7.23239990	     -7.11741735	     56.82706183	      0.99181933	      6.46258181	    -13.60924341	     -7.48356623	     43.03384327	      0.58456158	     -1.55671258	     53.38458684	      0.93173681	      1.00119157	    -17.02948863	     -7.48356623	    -24.35395103	     -0.71862712	     -3.81529387	    -14.74663036	     -7.49588285	     -0.85868820	    124.73699500	    109.43612045	    -25.13806057	    -17.50692011	    -22.19225747	    113.40579745	    101.73362854
      1.84000000	    -10.81584193	      4.28972497	     -0.17188222	     -0.18998588	      0.99660273	     -0.57049324	     38.28215922	     -7.82287131	     -7.85248390	     51.09416629	      0.89176143	      1.60399128	    -12.70212664	     -7.48342349	     39.93065701	      0.65236560	     -3.07634373	     47.54932789	      0.82989233	     -5.03760530	    -16.04481833	     -7.48342349	    -23.01885096	     -1.67194999	     -3.55736014	    -17.97671193	     -8.20074313	     -2.37315424	    126.22606395	    110.01297621	    -27.80818483	    -16.65231059	    -22.88658604	    114.05476965	    102.81122764
      1.85000000	    -10.73109581	      4.84601618	     -0.36039742	     -0.18478889	      1.02302590	     -0.56953972	     35.14379869	     -8.18542424	     -8.62108154	     44.84151306	      0.78263204	     -3.55893738	    -10.97032320	     -7.48280075	     37.09808683	      0.61865041	     -4.62303384	     41.66081515	      0.72711839	    -11.73990676	    -13.77993355	     -7.48280075	    -21.63221625	     -2.42766912	     -3.26604798	    -20.81521005	     -8.86890882	     -3.80001787	    127.47445189	    111.16302938	    -30.07474254	    -15.71192888	    -23.40864127	    114.15047278	    104.12851820
      1.86000000	    -10.28486393	      5.27117349	     -0.55389982	     -0.17962827	      1.05081165	     -0.56849751	     31.27850633	     -8.21723715	     -9.41116129	     37.58409508	      0.65596621	    -10.94818153	    -10.98590193	     -7.48400009	     33.85181822	      0.68439136	     -5.98185244	     35.17629242	      0.61394212	    -20.85584418	    -13.45989605	     -7.48400009	    -20.72170732	     -2.99630724	     -2.56945391	    -23.47851503	     -9.33821252	     -5.41380620	    128.33454157	    107.88232495	    -31.45263566	    -15.10754571	    -23.05750422	    113.28769308	    103.97964212
